<svg xmlns="http://www.w3.org/2000/svg" version="1.1" xmlns:xlink="http://www.w3.org/1999/xlink" xmlns:svgjs="http://svgjs.com/svgjs" width="1000" height="462.27"><svg version="1.1" id="SvgjsSvg1000" xmlns="http://www.w3.org/2000/svg" xmlns:xlink="http://www.w3.org/1999/xlink" x="0px" y="0px" viewBox="0 0 1000 462.27" style="enable-background:new 0 0 1000 462.27;" xml:space="preserve">
<path d="M225.17,181.78c-13.25,27.03-3.06,44.28-3.25,70.51c-0.72,7.23-16.27,18.44-22.42,12.29c-8.32-8.32-8.32-26.76-6.51-37.96
	c3.5-15.48,7.09-44.54,24.95-48.81C220.83,177.08,227.34,176.72,225.17,181.78z M968.91,185.04c-0.72,1.63-1.46,3.26-2.2,4.88
	c5.03,20.94,11.77,53.76,28.96,67.79c6.51,3.98-11.93,18.8-18.44,14.82c-17.57-10.37-25.49-27.62-30.73-46.63
	c-12.17,18.6-50.6,47.42-65.35,16.94c-21.24,17.75-50.35,10.38-52.72-18.43c-11.68,9.78-23.29,19.55-34.88,29.33
	c-2.89,2.17-20.25,10.85-17.36,0.36c1.92-6.47,3.83-12.94,5.75-19.4c-10.85,6.47-23.29,10.23-36.12,10.37
	c-6.4-0.6-2.52-10.3-3.34-14.63c-12.18,11.13-38.4,28.81-48.57,6.69c-0.69,7.03-1.55,14.02-2.69,20.96
	c-1.08,6.51-19.89,19.89-21.69,10.12c-5.79-35.07,0-73.4,3.62-108.47c3.25-35.43,6.87-72.68,17.36-106.66
	c1.45-4.7,20.97-16.63,20.97-7.95c-4.92,57.79-15.64,114.44-16.04,172.56c10.43-19.88,31.59-34.07,54.01-28.65
	c7.96,1.81-7.23,13.38-12.29,12.29c-25.67-5.18-28.08,25.45-14.82,29.29c-1.81-0.36,2.17-1.81,3.62-3.25
	c6.58-5.44,13.14-12.42,16.99-20.25c2.44-4.68,25.89-21.11,23.08-6.85c0.02-0.01,0.04-0.02,0.06-0.02
	c-0.43,8.92-0.33,17.92-0.63,26.86c14.86-1.89,24.38-15.04,27.39-29.75c0.07-0.03,0.14-0.05,0.21-0.08
	c0.44-7.64,24.94-18.55,23.65-10.77c-3.79,14.05-8.73,27.63-12.42,41.7c10.94-9.15,21.92-18.26,33.03-27.24
	c4.34-3.25,23.14-10.12,16.27,1.81c-8.31,16.11,12.22,43.9,26.7,26.21c5.86-26.97,32-41.69,57.18-48.11
	c-5.3-48.89-7.55-99.28,3.97-147.32c3.98-15.19,17.72-37.6,36.16-32.9C1024.53,23.01,985.78,148.28,968.91,185.04z M929.2,225.8
	c-8.5,1.04-18.63-2.85-26.68,0.01c0.85,4.54,3.32,9.58,7.46,11.65C919.02,242.05,924.34,231.72,929.2,225.8z M941.61,205.22
	c-0.68-3.25-1.29-6.51-1.87-9.78c-11.46-2.22-29.75,7.04-35.24,16.51c12.01-6.48,22.75-2.61,35.3-3.19
	C940.41,207.59,941.01,206.41,941.61,205.22z M975.78,64.99c-0.5-14.44-1.99-29.56-10.36-41.62c-10.94,41.83-8.82,87.33-4.18,129.97
	C969.79,125.06,976.5,95.03,975.78,64.99z M652.47,245.06c6.58-47.1,1.82-95.65,9.63-142.82c1.15-10.12,5.31-30.84,2.41-35.13
	c-2.36-3.48-15.92,3.7-17.84,6.23c-7.47,11.04-14.21,71.2-15.37,86.75c-1.54,15.55-5.38,71.58-0.77,94.73
	C632.41,264.3,651.7,251.2,652.47,245.06z M166.2,160.3c-7.3,28.07-10.61,52.99-11.63,80.39c-1.57,18.47-1.5,52.91,22.06,24.59
	c6.51-20.97,3.25-45.92,5.42-67.61c1.44-13.69,6.93-39.7,9.11-49.76C348.49,76.93,455.05,37.84,470.92,38.14
	c-8.91,11.03-46.15,37.25-45.95,42.9c0.08,2.44,2.41,5.82,4.48,7.21c7.95,7.84,76.57-54.56,77.65-65.37
	c1.52-3.47-1.1-16.71-3.16-19.63C491.8-12.72,336.8,60.77,200.9,120.42c-44.67,20.44-106.81,54.55-145.83,77.09
	c7.11-9.1,52.21-47.6,50.57-57.8c-0.32-2.51-5.46-9.42-9.96-5.42c-29.08,25.85-88.34,80.46-94.43,87.18
	c-2.73,3.01-0.36,9.12,1.24,11.97c6.9,22.21,86.28-33.75,101.49-39.93C125.32,181.73,166.2,160.3,166.2,160.3z M980.77,319.87
	c-17.66,13.68-85.42,3.11-111.54,4.49c-98.8-2.37-197.64-3.39-296.46-3.06c-4.87,50.66-4.7,77.46,1.68,127.74
	c1.08,7.59-18.72,19.05-21.33,9.76c-13.02-46.23-10.13-86.91-4.72-137.39c-138.26,0.58-276.44,4.64-414.62,8.99
	c-5.38,0.17-5.83-3.3-2.35-6.46c4.6-4.18,11.57-6.08,17.62-6.41c133.76-7.01,267.73-10.07,401.66-11.36
	c3.39-20.97,7.58-54.5,12.09-74.55c-10.43,4.65-23.6,7.75-33.86,1.39c-6.12,10.21-23.16,20.61-33.68,10.6
	c-6.05-6.29-4.82-14.85-5.73-22.75c-8.58,9.57-17.15,19.06-25.73,28.54c-2.53,2.53-19.16,13.74-19.89,4.7
	c-1.79-17.7-1.27-35.4,1.22-52.77c-6.86,0.72-13.7,1.21-20.52,1.52c2.59,8.75,6.61,17.1,7.73,27.02
	c1.09,6.87-20.25,19.89-23.14,12.65c-4.99-10.7-4.59-24.16-13.38-32.72c18.3,35.64-47.32,74.32-60.39,29.63
	c-5.44,6.74-10.53,13.64-15.54,19.73c-2.17,2.89-15.55,12.29-18.8,6.15c-6.35-12.23-11.61-28.29-14.03-43.89
	c-2.43,5.57-16.93,19.13-22.85,12.08c-1.88-3.02-3.93-5.9-5.95-8.77c-1.45,8.56-2.34,17.27-3.81,25.76
	c-1.08,6.51-21.69,20.25-22.42,10.49c-1.81-23.86-3.98-48.45,6.15-70.87c2.53-5.42,22.06-14.46,18.44-6.15
	c-1.08,2.86-1.94,5.78-2.62,8.73c6.02-4.23,14.88-8.42,15.64-1.86c0.64,6.81,4.16,12.49,8.06,17.93c3.24-5.13,6.45-10.27,9.66-15.4
	c1.45-2.89,21.33-15.55,20.61-6.51c-1.18,16.81,3.17,37.21,9.92,53.98c6.19-7.32,12.43-17.37,17.37-25.33
	c5.67-9.14,13.66-10.97,18.7-14.38c-2.96-0.21-24.48-1.15-28.27-2.71c-4.34-1.45,1.45-8.32,2.89-9.4c3.25-3.25,9.04-6.51,14.1-6.15
	c6.79,0.6,55.81,2.09,56.74,2.3c0.58-11.49,2.76-23.53,6.9-34.48c1.81-4.7,20.61-18.8,22.78-9.04c3.15,15.2,1.73,31.52-6.56,44.3
	c9.22,0.39,16.93,0.62,25.36-0.08c4.7-17.12,14.13-62.61,32.9-67c3.26-0.72,9.76-1.45,7.59,3.98
	c-7.95,20.61-22.15,63.88-22.44,103.99c15.83-16.69,45.89-59.89,47.75-8.95c2.73-7.18,6.81-27.47,7.91-31.16
	c-0.27-7.97,24.4-18.16,23.18-10.72c-3.71,13.32-11.3,54.36,17.33,42.1c6.5-2.78,8.25-15.41,11.96-32.34
	c1.2-5.48,20.97-18.8,22.78-9.04c1.67,8.78-4.69,18.15-7.32,28.48c-5.66,22.21-11.71,71.17-15.15,100.79
	c135.83,0.03,271.92-0.76,407.6,5.78C988.29,312.37,982.94,318.23,980.77,319.87z M374.5,225.17c-1.98-5.19-5.5-9.18-9.71-12.35
	c-2.44,1.26-4.8,2.72-7.07,4.34c-2.32,7.69,1.88,18.72,10.63,23.2c5.42,2.53,4.7,2.17,6.87-2.17
	C377.03,234.93,375.58,228.42,374.5,225.17z"></path>
</svg><style>@media (prefers-color-scheme: light) { :root { filter: none; } }
</style></svg>