<?xml version="1.0" encoding="UTF-8"?>
<svg id="Layer_2" data-name="Layer 2" xmlns="http://www.w3.org/2000/svg" viewBox="0 0 241.58 111.67">
      <path class="cls-1" d="m54.4,43.91c-3.2,6.53-.74,10.7-.79,17.03-.18,1.75-3.93,4.45-5.42,2.97-2.01-2.01-2.01-6.46-1.57-9.17.85-3.74,1.71-10.76,6.03-11.79.7-.17,2.27-.26,1.75.96Zm179.67.79c-.17.39-.35.79-.53,1.18,1.22,5.06,2.84,12.99,7,16.38,1.57.96-2.88,4.54-4.45,3.58-4.24-2.5-6.16-6.67-7.42-11.26-2.94,4.49-12.22,11.46-15.79,4.09-5.13,4.29-12.16,2.51-12.74-4.45-2.82,2.36-5.63,4.72-8.43,7.08-.7.52-4.89,2.62-4.19.09l1.39-4.69c-2.62,1.56-5.63,2.47-8.73,2.5-1.55-.14-.61-2.49-.81-3.53-2.94,2.69-9.28,6.96-11.73,1.62-.17,1.7-.38,3.39-.65,5.06-.26,1.57-4.8,4.8-5.24,2.45-1.4-8.47,0-17.73.87-26.2.79-8.56,1.66-17.56,4.19-25.77.35-1.14,5.07-4.02,5.07-1.92-1.19,13.96-3.78,27.65-3.88,41.69,2.52-4.8,7.63-8.23,13.05-6.92,1.92.44-1.75,3.23-2.97,2.97-6.2-1.25-6.78,6.15-3.58,7.08-.44-.09.52-.44.87-.79,1.59-1.31,3.18-3,4.11-4.89.59-1.13,6.26-5.1,5.58-1.65,0,0,0,0,.01,0-.1,2.15-.08,4.33-.15,6.49,3.59-.46,5.89-3.63,6.62-7.19.02,0,.03-.01.05-.02.11-1.85,6.02-4.48,5.71-2.6-.92,3.39-2.11,6.68-3,10.07,2.64-2.21,5.29-4.41,7.98-6.58,1.05-.79,5.59-2.45,3.93.44-2.01,3.89,2.95,10.6,6.45,6.33,1.41-6.52,7.73-10.07,13.81-11.62-1.28-11.81-1.82-23.98.96-35.59.96-3.67,4.28-9.08,8.74-7.95,11.34,5.41,1.98,35.67-2.1,44.55Zm-9.6,9.85c-2.05.25-4.5-.69-6.45,0,.2,1.1.8,2.31,1.8,2.81,2.18,1.11,3.47-1.39,4.64-2.82Zm3-4.97c-.16-.78-.31-1.57-.45-2.36-2.77-.54-7.19,1.7-8.51,3.99,2.9-1.57,5.5-.63,8.53-.77.15-.28.29-.57.44-.85Zm8.26-33.88c-.12-3.49-.48-7.14-2.5-10.05-2.64,10.1-2.13,21.1-1.01,31.4,2.06-6.83,3.69-14.09,3.51-21.34Zm-78.1,43.5c1.59-11.38.44-23.11,2.33-34.5.28-2.45,1.28-7.45.58-8.49-.57-.84-3.84.89-4.31,1.51-1.8,2.67-3.43,17.2-3.71,20.96-.37,3.76-1.3,17.29-.19,22.88.46,2.29,5.12-.87,5.3-2.36Zm-117.47-20.47c-1.76,6.78-2.56,12.8-2.81,19.42-.38,4.46-.36,12.78,5.33,5.94,1.57-5.07.79-11.09,1.31-16.33.35-3.31,1.67-9.59,2.2-12.02,38.01-17.15,63.75-26.59,67.58-26.51-2.15,2.67-11.15,9-11.1,10.36.02.59.58,1.41,1.08,1.74,1.92,1.89,18.5-13.18,18.76-15.79.37-.84-.26-4.04-.76-4.74-2.93-3.86-40.38,13.89-73.21,28.31-10.79,4.94-25.8,13.18-35.23,18.62,1.72-2.2,12.61-11.5,12.22-13.96-.08-.61-1.32-2.28-2.41-1.31C16.09,38.68,1.77,51.88.3,53.5c-.66.73-.09,2.2.3,2.89,1.67,5.37,20.84-8.15,24.52-9.65,5.15-2.84,15.03-8.02,15.03-8.02Zm196.78,38.55c-4.27,3.3-20.63.75-26.95,1.08-23.87-.57-47.74-.82-71.62-.74-1.18,12.24-1.13,18.71.41,30.86.26,1.83-4.52,4.6-5.15,2.36-3.15-11.17-2.45-20.99-1.14-33.19-33.4.14-66.78,1.12-100.16,2.17-1.3.04-1.41-.8-.57-1.56,1.11-1.01,2.79-1.47,4.26-1.55,32.31-1.69,64.68-2.43,97.03-2.74.82-5.07,1.83-13.17,2.92-18.01-2.52,1.12-5.7,1.87-8.18.34-1.48,2.47-5.59,4.98-8.14,2.56-1.46-1.52-1.16-3.59-1.38-5.5-2.07,2.31-4.14,4.6-6.22,6.89-.61.61-4.63,3.32-4.8,1.14-.43-4.28-.31-8.55.29-12.75-1.66.17-3.31.29-4.96.37.63,2.11,1.6,4.13,1.87,6.53.26,1.66-4.89,4.8-5.59,3.06-1.21-2.58-1.11-5.84-3.23-7.9,4.42,8.61-11.43,17.95-14.59,7.16-1.31,1.63-2.54,3.3-3.75,4.77-.52.7-3.76,2.97-4.54,1.48-1.53-2.96-2.81-6.83-3.39-10.6-.59,1.34-4.09,4.62-5.52,2.92-.45-.73-.95-1.42-1.44-2.12-.35,2.07-.57,4.17-.92,6.22-.26,1.57-5.24,4.89-5.42,2.53-.44-5.76-.96-11.7,1.48-17.12.61-1.31,5.33-3.49,4.45-1.48-.26.69-.47,1.4-.63,2.11,1.45-1.02,3.6-2.03,3.78-.45.15,1.65,1.01,3.02,1.95,4.33.78-1.24,1.56-2.48,2.33-3.72.35-.7,5.15-3.76,4.98-1.57-.28,4.06.77,8.99,2.4,13.04,1.5-1.77,3-4.2,4.2-6.12,1.37-2.21,3.3-2.65,4.52-3.47-.71-.05-5.91-.28-6.83-.65-1.05-.35.35-2.01.7-2.27.79-.79,2.18-1.57,3.41-1.48,1.64.15,13.48.51,13.71.56.14-2.78.67-5.68,1.67-8.33.44-1.14,4.98-4.54,5.5-2.18.76,3.67.42,7.61-1.58,10.7,2.23.09,4.09.15,6.13-.02,1.13-4.14,3.41-15.12,7.95-16.19.79-.17,2.36-.35,1.83.96-1.92,4.98-5.35,15.43-5.42,25.12,3.82-4.03,11.09-14.47,11.54-2.16.66-1.73,1.64-6.64,1.91-7.53-.06-1.93,5.9-4.39,5.6-2.59-.9,3.22-2.73,13.13,4.19,10.17,1.57-.67,1.99-3.72,2.89-7.81.29-1.32,5.07-4.54,5.5-2.18.4,2.12-1.13,4.38-1.77,6.88-1.37,5.37-2.83,17.19-3.66,24.35,32.81,0,65.69-.18,98.47,1.4,1.52.15.23,1.56-.3,1.96Zm-146.46-22.88c-.48-1.25-1.33-2.22-2.35-2.98-.59.3-1.16.66-1.71,1.05-.56,1.86.46,4.52,2.57,5.6,1.31.61,1.14.52,1.66-.52.44-.79.09-2.36-.17-3.14Z"/>
</svg>